<?xml version="1.0" standalone="no"?>
<svg xmlns="http://www.w3.org/2000/svg" viewBox="0 0 104.424 36" width="104.424" height="36"><g fill="#1C658C" color="#1C658C" transform="translate(0 3.9999999999999982) scale(0.2800001)"><svg width="100.0" height="100.0" x="0.0" y="0.0" viewBox="0 0 100 100"><title></title><rect x="67" y="61.34" width="6" height="11.31" transform="translate(-26.87 69.12) rotate(-45)"></rect><rect x="64.34" y="32" width="11.31" height="6" transform="translate(-4.25 59.75) rotate(-45)"></rect><rect x="70" y="48" width="12" height="6"></rect><path d="M35,26.27V36.7L54.55,48.43l-1.61,6.44A6.77,6.77,0,0,1,46.37,60H36.76L20.88,75.88l4.24,4.24L39.24,66h7.13a12.76,12.76,0,0,0,12.39-9.68l2.69-10.75L41,33.3V20H38a22.16,22.16,0,0,0-15.78,6.54L18,30.76v8.48l8.46-8.46A16.2,16.2,0,0,1,35,26.27Z"></path></svg></g><path fill="#DADBBD" fill-rule="nonzero" d="M17.52 0.98L21.00 0.98L16.42 18.07L13.63 18.07L10.49 7.70L7.34 18.07L4.56 18.07L0 0.98L3.48 0.98L6.12 11.76L8.74 2.86Q9.17 0.86 10.56 0.86L10.56 0.86Q11.26 0.86 11.62 1.38Q11.98 1.90 12.26 2.86L12.26 2.86L14.86 11.76L17.52 0.98ZM33.48 8.78L33.48 18.07L30.36 18.07L30.36 9.48Q30.36 7.27 28.63 7.27L28.63 7.27L25.66 8.45L25.66 18.07L22.54 18.07L22.54 0.02L25.66 0.02L25.66 6.00L29.62 4.22Q31.73 4.22 32.60 5.42Q33.48 6.62 33.48 8.78L33.48 8.78ZM43.97 11.88L43.97 11.88L43.97 10.63Q43.97 8.86 43.45 7.92Q42.94 6.98 41.30 6.98L41.30 6.98Q38.66 6.98 38.66 10.54L38.66 10.54L38.66 11.78Q38.66 15.60 41.30 15.60L41.30 15.60Q43.01 15.60 43.54 14.33L43.54 14.33Q43.97 13.32 43.97 11.88ZM47.09 11.16L47.09 11.16Q47.09 15.60 45.41 17.11L45.41 17.11Q43.99 18.41 41.30 18.41L41.30 18.41Q37.87 18.41 36.67 16.39L36.67 16.39Q35.54 14.54 35.54 11.16L35.54 11.16Q35.54 7.99 36.67 6.19L36.67 6.19Q37.92 4.18 41.22 4.18Q44.52 4.18 45.80 5.94Q47.09 7.70 47.09 11.16ZM57.00 11.88L57.00 11.88L57.00 10.63Q57.00 8.86 56.48 7.92Q55.97 6.98 54.34 6.98L54.34 6.98Q51.70 6.98 51.70 10.54L51.70 10.54L51.70 11.78Q51.70 15.60 54.34 15.60L54.34 15.60Q56.04 15.60 56.57 14.33L56.57 14.33Q57.00 13.32 57.00 11.88ZM60.12 11.16L60.12 11.16Q60.12 15.60 58.44 17.11L58.44 17.11Q57.02 18.41 54.34 18.41L54.34 18.41Q50.90 18.41 49.70 16.39L49.70 16.39Q48.58 14.54 48.58 11.16L48.58 11.16Q48.58 7.99 49.70 6.19L49.70 6.19Q50.95 4.18 54.25 4.18Q57.55 4.18 58.84 5.94Q60.12 7.70 60.12 11.16ZM68.42 4.90L68.42 7.27L65.88 7.27L65.88 18.07L62.76 18.07L62.76 7.27L61.46 7.27L61.46 4.90L62.76 4.90L62.76 3.58Q62.76 2.11 63.70 1.06Q64.63 0 66.41 0L66.41 0L68.42 0L68.42 2.64L66.96 2.64Q65.88 2.64 65.88 3.77L65.88 3.77L65.88 4.90L68.42 4.90Z" transform="translate(36, 8.964)"></path></svg>